<svg class="svg-icon" style="width: 1em; height: 1em;vertical-align: middle;fill: currentColor;overflow: hidden;" version="1.1" xmlns="http://www.w3.org/2000/svg" viewBox="64.03 63.95 895.98 896.05"><path d="M511.92 350.016c-89.408 0-161.952 72.544-161.952 162.016 0 89.376 72.544 162.048 161.952 162.048s161.44-72.672 161.44-162.048c0-89.472-72-162.016-161.44-162.016zM836.624 605.056l-29.184 70.304 58.944 115.744-72.192 72.192-118.432-55.936-70.304 28.864-35.68 109.248-4.576 14.496-102.016 0-44.16-123.328-70.304-28.992-115.904 58.688-72.16-72.128 55.872-118.496-28.96-70.24-123.52-40.32 0-101.984 123.392-44.224 28.96-70.176-51.904-102.464-6.848-13.44 72.064-72.064 118.592 55.84 70.208-29.024 35.648-109.184 4.608-14.464 102.016 0 44.192 123.456 70.112 29.024 116.064-58.816 72.128 72.064-55.872 118.4 28.864 70.336 123.744 40.256 0 101.952-123.36 44.384z"/></svg>
